PathFileType  4	(X/Y/Z) H:\Shared drives\HIT\Data\HapticPilot\Subject1\Edited\Files_W_HJCs
DataRate	CameraRate	NumFrames	NumMarkers	Units	OrigDataRate	OrigDataStartFrame	OrigNumFrames
   50.0		   50.0		    7		     56		 mm	   50.0	      114	    227
Frame#	Time	r_knee			r_shank_antsup			r_ankle			r_calc			r_5meta			r_toe			L_knee			L_shank_antsup			L_ankle			L_calc			L_5meta			L_toe			r_mknee			r_mankle			L_mknee			L_mankle			r_sh2			r_sh3			r_sh4			L_sh2			L_sh3			r_thigh1			r_thigh2			r_thigh3			r_thigh4			r_thigh5			L_thigh1			L_thigh2			L_thigh3			L_thigh4			r.ASIS			r.PSIS			L.ASIS			L.PSIS			C7			R_Shoulder			L_Shoulder			Sternum			R_HJC			L_HJC			R_HJC_reg			L_HJC_reg			midPSIS			midASIS			midHJC			midPelvis			R_KJC			L_KJC			R_AJC			L_AJC			R_AJC_proj			R_5meta_proj			R_toe_proj			L_AJC_proj			L_5meta_proj			L_toe_proj			
		X1	Y1	Z1	X2	Y2	Z2	X3	Y3	Z3	X4	Y4	Z4	X5	Y5	Z5	X6	Y6	Z6	X7	Y7	Z7	X8	Y8	Z8	X9	Y9	Z9	X10	Y10	Z10	X11	Y11	Z11	X12	Y12	Z12	X13	Y13	Z13	X14	Y14	Z14	X15	Y15	Z15	X16	Y16	Z16	X17	Y17	Z17	X18	Y18	Z18	X19	Y19	Z19	X20	Y20	Z20	X21	Y21	Z21	X22	Y22	Z22	X23	Y23	Z23	X24	Y24	Z24	X25	Y25	Z25	X26	Y26	Z26	X27	Y27	Z27	X28	Y28	Z28	X29	Y29	Z29	X30	Y30	Z30	X31	Y31	Z31	X32	Y32	Z32	X33	Y33	Z33	X34	Y34	Z34	X35	Y35	Z35	X36	Y36	Z36	X37	Y37	Z37	X38	Y38	Z38	X39	Y39	Z39	X40	Y40	Z40	X41	Y41	Z41	X42	Y42	Z42	X43	Y43	Z43	X44	Y44	Z44	X45	Y45	Z45	X46	Y46	Z46	X47	Y47	Z47	X48	Y48	Z48	X49	Y49	Z49	X50	Y50	Z50	X51	Y51	Z51	X52	Y52	Z52	X53	Y53	Z53	X54	Y54	Z54	X55	Y55	Z55	X56	Y56	Z56	

114	2.26000	774.093	578.789	-409.621	788.177	491.894	-404.769	735.102	114.311	-409.105	646.454	71.421	-452.132	847.133	39.405	-382.299	886.134	73.578	-445.123	768.473	573.198	-732.622	793.275	455.880	-733.851	705.345	113.427	-732.104	629.759	73.500	-681.324	821.017	42.481	-777.851	868.120	70.982	-721.396	771.869	557.954	-535.643	747.098	120.791	-505.355	786.546	562.617	-610.248	736.946	120.793	-642.235	784.689	371.727	-401.465	713.239	491.751	-392.841	702.710	375.845	-386.131	705.516	476.133	-752.462	693.040	354.044	-753.720	843.711	898.489	-393.359	842.175	783.548	-396.364	796.547	750.668	-383.879	730.756	893.084	-382.267	735.607	775.998	-394.193	857.187	839.403	-753.054	858.405	701.506	-743.986	741.971	838.411	-771.764	746.140	704.171	-752.424	867.825	1094.527	-447.486	678.759	1127.091	-540.257	877.153	1095.940	-705.485	687.039	1125.823	-622.781	726.929	1608.856	-589.081	770.810	1582.631	-423.537	794.738	1575.812	-765.188	868.790	1535.968	-581.422	798.739	1006.084	-459.679	806.173	1007.529	-695.922	793.393	1018.990	-490.277	810.402	1016.384	-659.799	682.899	1126.457	-581.519	872.489	1095.234	-576.485	802.456	1006.806	-577.801	777.694	1110.845	-579.002	772.981	568.371	-472.632	777.509	567.908	-671.435	741.100	117.551	-457.230	721.146	117.110	-687.170	741.100	0.000	-457.230	847.133	0.000	-382.299	886.134	0.000	-445.123	721.146	0.000	-687.170	821.017	0.000	-777.851	868.120	0.000	-721.396
115	2.28000	774.122	578.772	-409.687	788.200	491.908	-404.788	735.113	114.332	-409.107	646.496	71.358	-452.149	847.108	39.375	-382.309	886.136	73.552	-445.103	768.446	573.152	-732.635	793.259	455.859	-733.847	705.352	113.425	-732.111	629.729	73.498	-681.354	821.008	42.462	-777.873	868.113	70.984	-721.415	771.874	557.968	-535.685	747.088	120.779	-505.359	786.596	562.583	-610.242	736.926	120.716	-642.279	784.684	371.764	-401.506	713.235	491.784	-392.824	702.723	375.845	-386.177	705.475	476.083	-752.551	693.043	354.066	-753.789	843.807	898.498	-393.436	842.048	783.568	-396.372	796.591	750.651	-383.888	730.835	893.085	-382.345	735.677	775.967	-394.217	857.240	839.409	-753.095	858.425	701.505	-744.033	742.104	838.432	-771.716	746.177	704.186	-752.467	867.962	1094.570	-447.518	678.878	1127.035	-540.324	877.336	1095.928	-705.499	687.154	1125.774	-622.818	727.110	1608.792	-589.058	771.018	1582.700	-423.532	794.963	1575.843	-765.170	869.076	1536.060	-581.413	798.901	1006.097	-459.693	806.366	1007.498	-695.936	793.590	1018.967	-490.308	810.595	1016.376	-659.819	683.016	1126.405	-581.571	872.649	1095.249	-576.509	802.634	1006.798	-577.814	777.833	1110.827	-579.040	772.998	568.370	-472.686	777.521	567.868	-671.438	741.101	117.555	-457.233	721.139	117.070	-687.195	741.101	0.000	-457.233	847.108	0.000	-382.309	886.136	0.000	-445.103	721.139	0.000	-687.195	821.008	0.000	-777.873	868.113	0.000	-721.415
116	2.30000	774.166	578.764	-409.714	788.236	491.943	-404.790	735.086	114.328	-409.105	646.471	71.306	-452.203	847.120	39.384	-382.275	886.155	73.499	-445.125	768.431	573.083	-732.663	793.260	455.903	-733.877	705.405	113.394	-732.096	629.777	73.420	-681.368	821.013	42.440	-777.846	868.112	70.955	-721.416	771.939	557.913	-535.687	747.096	120.793	-505.363	786.478	562.518	-610.273	736.974	120.770	-642.238	784.682	371.760	-401.514	713.246	491.782	-392.844	702.736	375.882	-386.178	705.522	476.108	-752.538	693.019	354.118	-753.687	843.911	898.553	-393.432	842.272	783.566	-396.438	796.725	750.674	-383.880	730.928	893.117	-382.428	735.813	776.024	-394.207	857.396	839.368	-753.168	858.468	701.461	-744.057	742.170	838.386	-771.812	746.233	704.161	-752.459	868.085	1094.551	-447.603	678.957	1126.940	-540.335	877.481	1095.973	-705.483	687.390	1125.678	-622.889	727.258	1608.769	-589.061	771.250	1582.759	-423.471	795.204	1575.850	-765.111	869.299	1536.068	-581.402	799.083	1006.041	-459.750	806.588	1007.498	-695.991	793.628	1018.967	-490.513	810.934	1016.378	-659.928	683.174	1126.309	-581.612	872.783	1095.262	-576.543	802.836	1006.769	-577.871	777.978	1110.785	-579.077	773.052	568.339	-472.701	777.455	567.800	-671.468	741.091	117.561	-457.234	721.190	117.082	-687.167	741.091	0.000	-457.234	847.120	0.000	-382.275	886.155	0.000	-445.125	721.190	0.000	-687.167	821.013	0.000	-777.846	868.112	0.000	-721.416
117	2.32000	774.210	578.752	-409.713	788.261	491.909	-404.804	735.104	114.333	-409.102	646.472	71.355	-452.183	847.118	39.393	-382.292	886.152	73.531	-445.112	768.444	573.044	-732.694	793.284	455.873	-733.869	705.403	113.416	-732.114	629.782	73.463	-681.325	820.987	42.427	-777.861	868.136	70.980	-721.422	771.998	557.927	-535.707	747.134	120.780	-505.353	786.459	562.498	-610.316	736.845	120.688	-642.245	784.700	371.755	-401.500	713.300	491.784	-392.876	702.726	375.877	-386.213	705.547	476.115	-752.570	693.074	354.096	-753.686	843.985	898.556	-393.449	842.540	783.609	-396.394	796.844	750.721	-383.831	731.047	893.137	-382.450	735.887	776.008	-394.250	857.630	839.356	-753.266	858.598	701.415	-744.042	742.381	838.356	-771.876	746.459	704.166	-752.445	868.201	1094.547	-447.554	679.040	1126.913	-540.402	877.610	1096.010	-705.403	687.498	1125.634	-622.899	727.372	1608.740	-589.017	771.563	1582.811	-423.407	795.439	1575.922	-765.004	869.503	1536.040	-581.326	799.185	1006.029	-459.738	806.765	1007.505	-695.977	793.722	1019.007	-490.470	811.088	1016.382	-659.859	683.269	1126.273	-581.651	872.905	1095.278	-576.478	802.975	1006.767	-577.858	778.087	1110.776	-579.065	773.104	568.340	-472.710	777.451	567.771	-671.505	741.119	117.557	-457.227	721.124	117.052	-687.179	741.119	0.000	-457.227	847.118	0.000	-382.292	886.152	0.000	-445.112	721.124	0.000	-687.179	820.987	0.000	-777.861	868.136	0.000	-721.422
118	2.34000	774.249	578.781	-409.748	788.375	491.931	-404.784	735.101	114.314	-409.125	646.486	71.349	-452.150	847.131	39.412	-382.261	886.132	73.534	-445.108	768.401	573.081	-732.729	793.271	455.857	-733.877	705.399	113.397	-732.092	629.763	73.492	-681.325	821.004	42.439	-777.870	868.130	70.968	-721.418	772.055	557.946	-535.733	747.100	120.738	-505.355	786.477	562.520	-610.352	736.895	120.695	-642.233	784.742	371.755	-401.472	713.313	491.816	-392.912	702.789	375.873	-386.220	705.494	476.118	-752.536	693.101	354.094	-753.678	844.121	898.502	-393.465	842.828	783.579	-396.445	796.946	750.743	-383.875	731.184	893.194	-382.432	735.958	776.051	-394.249	857.773	839.312	-753.324	858.686	701.375	-744.063	742.491	838.347	-771.940	746.570	704.170	-752.474	868.315	1094.528	-447.571	679.220	1126.863	-540.421	877.857	1096.044	-705.357	687.588	1125.650	-623.012	727.555	1608.835	-588.973	771.835	1582.801	-423.355	795.654	1575.980	-764.974	869.700	1535.999	-581.309	799.312	1005.998	-459.782	806.989	1007.535	-696.017	794.029	1018.936	-490.442	811.191	1016.450	-659.815	683.404	1126.256	-581.717	873.086	1095.286	-576.464	803.150	1006.766	-577.899	778.245	1110.771	-579.091	773.152	568.364	-472.741	777.439	567.800	-671.540	741.101	117.526	-457.240	721.147	117.046	-687.162	741.101	0.000	-457.240	847.131	0.000	-382.261	886.132	0.000	-445.108	721.147	0.000	-687.162	821.004	0.000	-777.870	868.130	0.000	-721.418
119	2.36000	774.324	578.755	-409.775	788.310	491.866	-404.846	735.105	114.335	-409.114	646.529	71.389	-452.115	847.135	39.401	-382.243	886.163	73.532	-445.079	768.476	573.134	-732.747	793.317	455.921	-733.930	705.403	113.407	-732.082	629.790	73.566	-681.293	821.013	42.501	-777.825	868.149	70.967	-721.401	772.191	557.928	-535.715	747.128	120.729	-505.348	786.444	562.478	-610.354	736.805	120.672	-642.270	784.790	371.746	-401.506	713.350	491.782	-392.878	702.792	375.855	-386.239	705.559	476.149	-752.553	693.152	354.057	-753.782	844.233	898.555	-393.455	842.694	783.594	-396.332	796.987	750.729	-383.931	731.290	893.134	-382.558	736.057	776.069	-394.329	857.813	839.070	-753.390	858.804	701.352	-744.080	742.674	838.321	-771.980	746.785	704.182	-752.579	868.421	1094.485	-447.568	679.372	1126.901	-540.462	878.038	1096.090	-705.324	687.713	1125.695	-623.033	727.720	1608.869	-588.879	772.107	1582.849	-423.283	795.891	1576.091	-764.890	869.872	1536.025	-581.226	799.400	1005.977	-459.816	807.141	1007.589	-696.048	794.165	1018.970	-490.418	811.273	1016.496	-659.778	683.542	1126.298	-581.747	873.230	1095.288	-576.446	803.271	1006.783	-577.932	778.386	1110.793	-579.097	773.257	568.342	-472.745	777.460	567.806	-671.551	741.117	117.532	-457.231	721.104	117.039	-687.176	741.117	0.000	-457.231	847.135	0.000	-382.243	886.163	0.000	-445.079	721.104	0.000	-687.176	821.013	0.000	-777.825	868.149	0.000	-721.401
120	2.38000	774.395	578.779	-409.785	788.433	491.920	-404.814	735.127	114.311	-409.104	646.519	71.417	-452.127	847.144	39.384	-382.289	886.143	73.543	-445.047	768.567	573.128	-732.746	793.394	455.910	-733.942	705.413	113.428	-732.054	629.797	73.547	-681.248	821.037	42.493	-777.861	868.157	70.971	-721.372	772.275	557.907	-535.724	747.106	120.761	-505.355	786.581	562.485	-610.286	736.969	120.766	-642.229	784.835	371.721	-401.505	713.416	491.793	-392.847	702.840	375.889	-386.271	705.630	476.149	-752.603	693.120	354.030	-753.708	844.350	898.538	-393.447	842.990	783.617	-396.356	797.111	750.772	-383.873	731.443	893.169	-382.599	736.124	776.082	-394.344	857.934	839.067	-753.405	858.929	701.355	-744.122	742.781	838.317	-772.058	746.462	704.185	-752.618	868.562	1094.490	-447.559	679.491	1126.878	-540.502	878.257	1096.103	-705.317	687.816	1125.717	-623.076	727.805	1608.900	-588.774	772.274	1582.879	-423.282	796.152	1576.118	-764.820	870.047	1536.035	-581.162	799.527	1005.975	-459.835	807.329	1007.605	-696.066	794.376	1018.905	-490.433	811.451	1016.524	-659.802	683.654	1126.298	-581.789	873.410	1095.297	-576.438	803.428	1006.790	-577.950	778.532	1110.797	-579.114	773.335	568.343	-472.755	777.574	567.806	-671.516	741.117	117.536	-457.229	721.191	117.097	-687.141	741.117	0.000	-457.229	847.144	0.000	-382.289	886.143	0.000	-445.047	721.191	0.000	-687.141	821.037	0.000	-777.861	868.157	0.000	-721.372
